<?xml version="1.0" encoding="iso-8859-1"?>
<!-- Generator: Adobe Illustrator 19.0.0, SVG Export Plug-In . SVG Version: 6.00 Build 0)  -->
<svg version="1.1" id="Capa_1" xmlns="http://www.w3.org/2000/svg" xmlns:xlink="http://www.w3.org/1999/xlink" x="0px" y="0px"
	 viewBox="0 0 512 512" style="enable-background:new 0 0 512 512;" xml:space="preserve">
<g>
	<g>
		<path d="M429.605,3.469c-1.429-2.242-3.85-3.462-6.325-3.464V0c-28.351,0-54.993,2.241-81.448,6.853
			c-4.081,0.711-6.812,4.596-6.101,8.677c0.635,3.645,3.802,6.213,7.38,6.213c0.427,0,0.861-0.036,1.297-0.112
			c18.91-3.296,37.937-5.332,57.665-6.176c-11.052,10.803-25.492,28.005-37.322,52.589c-0.825,1.716-1.625,3.445-2.404,5.188
			c-60.32,4.57-105.757,23.196-145.897,39.663c-38.031,15.603-74.026,30.366-117.285,31.342c-3.7-19.303-3.906-38.511-0.589-57.292
			c51.246-2.946,91.596-17.531,134.251-32.959c25.046-9.059,50.945-18.426,80.037-25.67c4.019-1,6.467-5.07,5.466-9.089
			c-1.001-4.021-5.07-6.472-9.09-5.466c-29.843,7.43-56.111,16.931-81.515,26.119c-40.344,14.592-78.574,28.41-125.643,31.804
			c10.38-36.672,31.134-58.766,31.354-58.998c2.86-2.987,2.761-7.729-0.223-10.595c-2.988-2.868-7.735-2.773-10.604,0.214
			C121.557,3.4,96.701,29.658,85.993,73.872c-6.287,25.96-6.365,52.738-0.231,79.589c7.598,33.259,24.797,66.646,51.119,99.235
			c13.164,16.298,31.2,32.391,50.295,49.429C242.972,351.908,306.056,408.21,281.39,497h-26.449c-4.142,0-7.5,3.357-7.5,7.5
			s3.358,7.5,7.5,7.5h120.242c4.142,0,7.5-3.357,7.5-7.5s-3.358-7.5-7.5-7.5h-23.796c7.707-10.923,18.635-28.643,27.662-51.89
			c14.268-36.74,26.171-94.714,1.855-162.258c-16.038-44.552-23.54-86.44-22.296-124.505c0.988-30.236,7.471-58.156,19.27-82.984
			c16.087-33.854,39.371-55.058,49.442-61.544C430.805,11.591,431.829,6.959,429.605,3.469z M182.585,277.843
			c-13.045-11.863-24.941-23.313-34.035-34.572c-3.75-4.643-7.279-9.3-10.634-13.966c10.124-1.576,20.397-4.035,31.131-7.465
			c3.946-1.262,6.122-5.482,4.861-9.428c-1.261-3.946-5.481-6.123-9.427-4.86c-12.515,3.999-24.311,6.574-35.953,7.874
			c-11.841-18.725-20.468-37.552-25.803-56.291c44.518-1.643,80.965-16.587,119.418-32.363
			c39.264-16.108,79.799-32.727,134.001-37.956c-6.281,17.867-10.242,36.947-11.847,57.028
			c-51.547,5.273-90.818,23.332-125.578,39.32c-7.88,3.625-15.323,7.049-22.879,10.334c-3.799,1.651-5.539,6.07-3.887,9.869
			c1.229,2.824,3.986,4.511,6.882,4.511c0.998,0,2.013-0.2,2.987-0.624c7.7-3.349,15.212-6.804,23.166-10.462
			c34.78-15.998,70.702-32.51,118.572-37.782c-0.328,15.891,0.757,32.364,3.262,49.356c-41.247,5.755-72.781,23.47-100.768,39.205
			C224.768,261.537,204.605,272.854,182.585,277.843z M375.975,402.544c-12.126,1.694-24.212,7.832-37.673,19.104
			c-3.176,2.659-3.594,7.39-0.935,10.565c1.484,1.771,3.611,2.685,5.754,2.685c1.698,0,3.407-0.574,4.811-1.75
			c8.816-7.382,16.672-12.081,24.128-14.391c-1.919,6.809-4.171,13.602-6.782,20.375c-11.69,30.334-27.147,51.019-32.674,57.868
			h-35.687c2.055-8.105,3.433-15.959,4.216-23.584c7.219-3.169,14.368-9.288,23.17-17.854c2.969-2.889,3.033-7.637,0.145-10.605
			c-2.888-2.968-7.637-3.034-10.605-0.145c-4.012,3.904-8.109,7.725-11.959,10.653c-0.338-16.723-3.599-32.266-9.003-46.798
			c11.049-6.891,20.421-15.848,29.522-24.548c16.753-16.016,32.634-31.212,57.414-32.155
			C380.624,368.87,379.347,385.747,375.975,402.544z M362.01,273.909c-7.104,0.858-14.105,2.396-21.194,4.679
			c-3.943,1.27-6.11,5.495-4.84,9.438c1.024,3.179,3.968,5.203,7.137,5.203c0.762,0,1.537-0.117,2.301-0.363
			c7.217-2.324,14.315-3.763,21.564-4.394c5.773,16.156,9.628,32.346,11.579,48.526c-29.955,1.326-48.53,19.081-66.521,36.281
			c-8.309,7.943-16.242,15.524-25.136,21.407c-8.329-17.211-19.537-32.956-32.122-47.553c11.833-6.172,22.983-14.12,34.66-22.443
			c8.242-5.876,16.765-11.951,25.534-17.325c3.532-2.164,4.641-6.781,2.477-10.313c-2.164-3.53-6.782-4.64-10.313-2.476
			c-9.215,5.646-17.954,11.875-26.405,17.899c-12.411,8.848-24.199,17.241-36.392,23.104
			c-15.213-16.122-31.704-30.841-47.176-44.646c-0.419-0.374-0.834-0.744-1.251-1.117c20.065-6.138,38.345-16.407,57.493-27.171
			c28.211-15.86,57.344-32.225,95.937-37.487C352.384,241.014,356.61,257.283,362.01,273.909z"/>
	</g>
</g>
<g>
</g>
<g>
</g>
<g>
</g>
<g>
</g>
<g>
</g>
<g>
</g>
<g>
</g>
<g>
</g>
<g>
</g>
<g>
</g>
<g>
</g>
<g>
</g>
<g>
</g>
<g>
</g>
<g>
</g>
</svg>
